<mxfile host="app.diagrams.net" modified="2021-05-01T13:18:06.404Z" agent="5.0 (X11; Linux x86_64) AppleWebKit/537.36 (KHTML, like Gecko) Chrome/90.0.4430.93 Safari/537.36" etag="tFvPumkCvZ4RR15uGNgh" version="14.5.0" type="github">
  <diagram id="r7_oNy5sGWl3QPFg1p7B" name="Page-1">
    <mxGraphModel dx="2180" dy="1219" grid="1" gridSize="10" guides="1" tooltips="1" connect="1" arrows="1" fold="1" page="1" pageScale="1" pageWidth="827" pageHeight="1169" math="0" shadow="0">
      <root>
        <mxCell id="0" />
        <mxCell id="1" parent="0" />
        <mxCell id="ii2YrtYYMsufQv7j4M-1-1" value="" style="rounded=0;whiteSpace=wrap;html=1;" vertex="1" parent="1">
          <mxGeometry x="40" y="80" width="760" height="320" as="geometry" />
        </mxCell>
        <mxCell id="ii2YrtYYMsufQv7j4M-1-2" value="" style="rounded=0;whiteSpace=wrap;html=1;" vertex="1" parent="1">
          <mxGeometry x="60" y="210" width="120" height="60" as="geometry" />
        </mxCell>
        <mxCell id="ii2YrtYYMsufQv7j4M-1-3" value="" style="rounded=1;whiteSpace=wrap;html=1;direction=south;fillColor=#fff2cc;strokeColor=#d6b656;" vertex="1" parent="1">
          <mxGeometry x="214" y="180" width="60" height="120" as="geometry" />
        </mxCell>
        <mxCell id="ii2YrtYYMsufQv7j4M-1-4" value="" style="rounded=1;whiteSpace=wrap;html=1;direction=south;fillColor=#d5e8d4;strokeColor=#82b366;" vertex="1" parent="1">
          <mxGeometry x="291" y="180" width="61" height="120" as="geometry" />
        </mxCell>
        <mxCell id="ii2YrtYYMsufQv7j4M-1-5" value="" style="rounded=0;whiteSpace=wrap;html=1;rotation=90;" vertex="1" parent="1">
          <mxGeometry x="318.5" y="234" width="121" height="15" as="geometry" />
        </mxCell>
        <mxCell id="ii2YrtYYMsufQv7j4M-1-14" value="&lt;font color=&quot;#009900&quot;&gt;&quot;Fetch all the endpoints&quot;&lt;/font&gt;" style="text;html=1;strokeColor=none;fillColor=none;align=center;verticalAlign=middle;whiteSpace=wrap;rounded=0;" vertex="1" parent="1">
          <mxGeometry x="65" y="230" width="110" height="20" as="geometry" />
        </mxCell>
        <mxCell id="ii2YrtYYMsufQv7j4M-1-18" value="BERT" style="text;html=1;strokeColor=none;fillColor=none;align=center;verticalAlign=middle;whiteSpace=wrap;rounded=0;" vertex="1" parent="1">
          <mxGeometry x="224" y="230" width="40" height="20" as="geometry" />
        </mxCell>
        <mxCell id="ii2YrtYYMsufQv7j4M-1-19" value="Classifier" style="text;html=1;strokeColor=none;fillColor=none;align=center;verticalAlign=middle;whiteSpace=wrap;rounded=0;" vertex="1" parent="1">
          <mxGeometry x="299.5" y="229" width="40" height="20" as="geometry" />
        </mxCell>
        <mxCell id="ii2YrtYYMsufQv7j4M-1-20" value="SOFTMAX" style="text;html=1;strokeColor=none;fillColor=none;align=center;verticalAlign=middle;whiteSpace=wrap;rounded=0;rotation=-89;" vertex="1" parent="1">
          <mxGeometry x="336.37" y="230" width="85.26" height="20" as="geometry" />
        </mxCell>
        <mxCell id="ii2YrtYYMsufQv7j4M-1-21" value="" style="endArrow=classic;html=1;exitX=1;exitY=0.5;exitDx=0;exitDy=0;" edge="1" parent="1" source="ii2YrtYYMsufQv7j4M-1-2" target="ii2YrtYYMsufQv7j4M-1-3">
          <mxGeometry width="50" height="50" relative="1" as="geometry">
            <mxPoint x="180" y="244.5" as="sourcePoint" />
            <mxPoint x="214" y="242" as="targetPoint" />
          </mxGeometry>
        </mxCell>
        <mxCell id="ii2YrtYYMsufQv7j4M-1-24" value="" style="endArrow=classic;html=1;exitX=0.5;exitY=1;exitDx=0;exitDy=0;" edge="1" parent="1" source="ii2YrtYYMsufQv7j4M-1-20" target="ii2YrtYYMsufQv7j4M-1-25">
          <mxGeometry width="50" height="50" relative="1" as="geometry">
            <mxPoint x="440" y="240" as="sourcePoint" />
            <mxPoint x="490" y="190" as="targetPoint" />
          </mxGeometry>
        </mxCell>
        <mxCell id="ii2YrtYYMsufQv7j4M-1-25" value="" style="ellipse;whiteSpace=wrap;html=1;aspect=fixed;" vertex="1" parent="1">
          <mxGeometry x="421.63" y="194" width="90" height="90" as="geometry" />
        </mxCell>
        <mxCell id="ii2YrtYYMsufQv7j4M-1-26" value="GET&amp;nbsp; /&lt;font style=&quot;font-size: 9px&quot;&gt;endpoints&lt;/font&gt;" style="text;html=1;fillColor=#cce5ff;align=left;verticalAlign=middle;whiteSpace=wrap;rounded=0;strokeColor=#36393d;strokeWidth=1;" vertex="1" parent="1">
          <mxGeometry x="427" y="228" width="80" height="20" as="geometry" />
        </mxCell>
        <mxCell id="ii2YrtYYMsufQv7j4M-1-27" value="&lt;b&gt;&lt;font size=&quot;1&quot;&gt;&lt;u style=&quot;font-size: 14px&quot;&gt;NLP Based hydra-python-agent querying mechanism&lt;/u&gt;&lt;/font&gt;&lt;/b&gt;" style="text;html=1;strokeColor=none;fillColor=none;align=center;verticalAlign=middle;whiteSpace=wrap;rounded=0;" vertex="1" parent="1">
          <mxGeometry x="40" y="86" width="760" height="20" as="geometry" />
        </mxCell>
        <mxCell id="ii2YrtYYMsufQv7j4M-1-28" value="" style="endArrow=classic;html=1;exitX=1;exitY=0.5;exitDx=0;exitDy=0;" edge="1" parent="1" source="ii2YrtYYMsufQv7j4M-1-25" target="ii2YrtYYMsufQv7j4M-1-29">
          <mxGeometry width="50" height="50" relative="1" as="geometry">
            <mxPoint x="511.63" y="234" as="sourcePoint" />
            <mxPoint x="561.63" y="184" as="targetPoint" />
          </mxGeometry>
        </mxCell>
        <mxCell id="ii2YrtYYMsufQv7j4M-1-29" value="" style="rounded=1;whiteSpace=wrap;html=1;" vertex="1" parent="1">
          <mxGeometry x="559" y="225" width="211" height="28" as="geometry" />
        </mxCell>
        <mxCell id="ii2YrtYYMsufQv7j4M-1-30" value="&lt;font style=&quot;font-size: 10px&quot;&gt;&lt;span style=&quot;color: rgb(227 , 98 , 9) ; background-color: rgb(255 , 255 , 255)&quot;&gt;EndpointQuery().&lt;/span&gt;&lt;span style=&quot;color: rgb(111 , 66 , 193) ; font-family: , &amp;#34;consolas&amp;#34; , &amp;#34;liberation mono&amp;#34; , &amp;#34;menlo&amp;#34; , monospace ; background-color: rgb(255 , 251 , 221)&quot;&gt;get_allEndpoints(endpoints)&lt;/span&gt;&lt;/font&gt;" style="text;html=1;strokeColor=none;fillColor=none;align=center;verticalAlign=middle;whiteSpace=wrap;rounded=0;" vertex="1" parent="1">
          <mxGeometry x="570" y="228" width="190" height="20" as="geometry" />
        </mxCell>
        <mxCell id="ii2YrtYYMsufQv7j4M-1-35" value="" style="endArrow=classic;html=1;entryX=0.539;entryY=1.024;entryDx=0;entryDy=0;entryPerimeter=0;" edge="1" parent="1">
          <mxGeometry width="50" height="50" relative="1" as="geometry">
            <mxPoint x="274" y="241" as="sourcePoint" />
            <mxPoint x="290.5360000000003" y="241.68000000000006" as="targetPoint" />
          </mxGeometry>
        </mxCell>
        <mxCell id="ii2YrtYYMsufQv7j4M-1-37" value="" style="endArrow=classic;html=1;exitX=0.5;exitY=0;exitDx=0;exitDy=0;entryX=0.5;entryY=0;entryDx=0;entryDy=0;" edge="1" parent="1">
          <mxGeometry width="50" height="50" relative="1" as="geometry">
            <mxPoint x="353" y="240.0000000000001" as="sourcePoint" />
            <mxPoint x="371.0015230484362" y="239.8254759356272" as="targetPoint" />
            <Array as="points">
              <mxPoint x="371" y="240" />
            </Array>
          </mxGeometry>
        </mxCell>
        <mxCell id="ii2YrtYYMsufQv7j4M-1-40" value="" style="strokeWidth=1;html=1;shape=mxgraph.flowchart.annotation_2;align=left;labelPosition=right;pointerEvents=1;rotation=-90;" vertex="1" parent="1">
          <mxGeometry x="274" y="225" width="50" height="206" as="geometry" />
        </mxCell>
        <mxCell id="ii2YrtYYMsufQv7j4M-1-41" value="Custom-trained BERT based &lt;br&gt;multi-label classification model" style="text;html=1;strokeColor=none;fillColor=none;align=center;verticalAlign=middle;whiteSpace=wrap;rounded=0;" vertex="1" parent="1">
          <mxGeometry x="191" y="359" width="210" height="20" as="geometry" />
        </mxCell>
        <mxCell id="ii2YrtYYMsufQv7j4M-1-42" value="User input" style="text;html=1;strokeColor=none;fillColor=none;align=center;verticalAlign=middle;whiteSpace=wrap;rounded=0;" vertex="1" parent="1">
          <mxGeometry x="87.5" y="180" width="65" height="20" as="geometry" />
        </mxCell>
      </root>
    </mxGraphModel>
  </diagram>
</mxfile>
